<svg xmlns="http://www.w3.org/2000/svg" xmlns:xlink="http://www.w3.org/1999/xlink" xmlns:lucid="lucid" width="1662" height="1642"><g transform="translate(121 -119)" lucid:page-tab-id="0_0"><path d="M-500 0h2500v2000H-500z" fill="#fff"/><path d="M340 126a6 6 0 0 1 6-6h568a6 6 0 0 1 6 6v188a6 6 0 0 1-6 6H346a6 6 0 0 1-6-6z" stroke="#000" stroke-width="2" fill="#fcfcca"/><use xlink:href="#a" transform="matrix(1,0,0,1,345,125) translate(169.58116319444446 21.52777777777778)"/><use xlink:href="#b" transform="matrix(1,0,0,1,345,125) translate(230.84418402777777 21.52777777777778)"/><use xlink:href="#c" transform="matrix(1,0,0,1,345,125) translate(263.65668402777777 21.52777777777778)"/><path d="M434 186a6 6 0 0 1 6-6h380a6 6 0 0 1 6 6v88.67a6 6 0 0 1-6 6H440a6 6 0 0 1-6-6z" stroke="#000" stroke-width="2" fill="#dedeff"/><use xlink:href="#d" transform="matrix(1,0,0,1,445.9999999999999,192) translate(-6.585611979166657 47.39214409722222)"/><path d="M-80 386a6 6 0 0 1 6-6h1508a6 6 0 0 1 6 6v188a6 6 0 0 1-6 6H-74a6 6 0 0 1-6-6z" stroke="#000" stroke-width="2" fill="#fcfcca"/><use xlink:href="#e" transform="matrix(1,0,0,1,-75,385) translate(665.3624131944445 21.52777777777778)"/><use xlink:href="#f" transform="matrix(1,0,0,1,-75,385) translate(726.6254340277778 21.52777777777778)"/><use xlink:href="#g" transform="matrix(1,0,0,1,-75,385) translate(759.4379340277778 21.52777777777778)"/><path d="M247 446a6 6 0 0 1 6-6h854a6 6 0 0 1 6 6v88.67a6 6 0 0 1-6 6H253a6 6 0 0 1-6-6z" stroke="#000" stroke-width="2" fill="#f4d9ff"/><use xlink:href="#h" transform="matrix(1,0,0,1,259,452) translate(346.58648003472223 47.74305555555556)"/><path d="M-120 746a6 6 0 0 1 6-6h648a6 6 0 0 1 6 6v188a6 6 0 0 1-6 6h-648a6 6 0 0 1-6-6z" stroke="#000" stroke-width="2" fill="#fcfcca"/><use xlink:href="#i" transform="matrix(1,0,0,1,-115,745) translate(281.609375 20.666666666666668)"/><path d="M-86 795.67a6 6 0 0 1 6-6h259.24a6 6 0 0 1 6 6V874a6 6 0 0 1-6 6H-80a6 6 0 0 1-6-6z" stroke="#000" stroke-width="2" fill="#fff0f0"/><use xlink:href="#j" transform="matrix(1,0,0,1,-74.00000000000009,801.6666666666667) translate(46.0773654513889 42.52430555555556)"/><path d="M208.76 795.67a6 6 0 0 1 6-6H474a6 6 0 0 1 6 6V874a6 6 0 0 1-6 6H214.76a6 6 0 0 1-6-6z" stroke="#000" stroke-width="2" fill="#fff0f0"/><use xlink:href="#k" transform="matrix(1,0,0,1,220.76283618581894,801.6666666666667) translate(57.571506076388886 42.52430555555556)"/><path d="M640 746a6 6 0 0 1 6-6h888a6 6 0 0 1 6 6v668a6 6 0 0 1-6 6H646a6 6 0 0 1-6-6z" stroke="#000" stroke-width="2" fill="#fcfcca"/><use xlink:href="#l" transform="matrix(1,0,0,1,645,745) translate(304.6875 20.666666666666668)"/><use xlink:href="#m" transform="matrix(1,0,0,1,645,745) translate(388.33333333333337 20.666666666666668)"/><use xlink:href="#n" transform="matrix(1,0,0,1,645,745) translate(419.83333333333337 20.666666666666668)"/><path d="M721 826.67a6 6 0 0 1 6-6h380a6 6 0 0 1 6 6v88.66a6 6 0 0 1-6 6H727a6 6 0 0 1-6-6z" stroke="#000" stroke-width="2" fill="#edf5ff"/><use xlink:href="#o" transform="matrix(1,0,0,1,732.9999999999997,832.6666666666665) translate(50.759765625 47.74305555555556)"/><path d="M917 923.33v17.17" stroke="#5e5e5e" stroke-width="2" fill="none"/><path d="M917.98 923.36H916v-1.03H918z" stroke="#5e5e5e" stroke-width=".05" fill="#5e5e5e"/><path d="M917 955.76l-4.63-14.26h9.26z" stroke="#5e5e5e" stroke-width="2" fill="#5e5e5e"/><path d="M630 282.67v71.66a6 6 0 0 1-6 6h-55.33a6 6 0 0 0-6 6v54.17" stroke="#5e5e5e" stroke-width="2" fill="none"/><path d="M630.98 282.7H629v-1.03H631z" stroke="#5e5e5e" stroke-width=".05" fill="#5e5e5e"/><path d="M562.67 435.76l-4.64-14.26h9.27z" stroke="#5e5e5e" stroke-width="2" fill="#5e5e5e"/><path d="M680 542.67v116.5a6 6 0 0 1-6 6H55.62a6 6 0 0 0-6 6v99" stroke="#5e5e5e" stroke-width="2" fill="none"/><path d="M680.98 542.7H679v-1.03H681z" stroke="#5e5e5e" stroke-width=".05" fill="#5e5e5e"/><path d="M49.62 785.43l-4.64-14.26h9.27z" stroke="#5e5e5e" stroke-width="2" fill="#5e5e5e"/><path d="M680 542.67v116.5a6 6 0 0 1-6 6H350.38a6 6 0 0 0-6 6v99" stroke="#5e5e5e" stroke-width="2" fill="none"/><path d="M680.98 542.7H679v-1.03H681z" stroke="#5e5e5e" stroke-width=".05" fill="#5e5e5e"/><path d="M344.38 785.43l-4.63-14.26h9.27z" stroke="#5e5e5e" stroke-width="2" fill="#5e5e5e"/><path d="M721 1126a6 6 0 0 1 6-6h380a6 6 0 0 1 6 6v88.67a6 6 0 0 1-6 6H727a6 6 0 0 1-6-6z" stroke="#000" stroke-width="2" fill="#edf5ff"/><use xlink:href="#p" transform="matrix(1,0,0,1,732.9999999999998,1132) translate(9.121853298611086 47.74305555555556)"/><path d="M680 542.67v121.66a6 6 0 0 0 6 6h225a6 6 0 0 1 6 6v124.83" stroke="#5e5e5e" stroke-width="2" fill="none"/><path d="M680.98 542.7H679v-1.03H681z" stroke="#5e5e5e" stroke-width=".05" fill="#5e5e5e"/><path d="M917 816.43l-4.63-14.26h9.26z" stroke="#5e5e5e" stroke-width="2" fill="#5e5e5e"/><path d="M917 1062.67v37.83" stroke="#5e5e5e" stroke-width="2" fill="none"/><path d="M917.98 1062.7H916v-1.03H918z" stroke="#5e5e5e" stroke-width=".05" fill="#5e5e5e"/><path d="M917 1115.76l-4.63-14.26h9.26z" stroke="#5e5e5e" stroke-width="2" fill="#5e5e5e"/><path d="M20 986a6 6 0 0 1 6-6h388a6 6 0 0 1 6 6v588a6 6 0 0 1-6 6H26a6 6 0 0 1-6-6z" stroke="#000" stroke-width="2" fill="#fcfcca"/><use xlink:href="#q" transform="matrix(1,0,0,1,25,985) translate(120.74479166666666 20.666666666666668)"/><use xlink:href="#m" transform="matrix(1,0,0,1,25,985) translate(179.55729166666666 20.666666666666668)"/><use xlink:href="#r" transform="matrix(1,0,0,1,25,985) translate(211.05729166666666 20.666666666666668)"/><path d="M1200 826a6 6 0 0 1 6-6h280a6 6 0 0 1 6 6v88.67a6 6 0 0 1-6 6h-280a6 6 0 0 1-6-6z" stroke="#000" stroke-width="2" fill="#edf5ff"/><use xlink:href="#s" transform="matrix(1,0,0,1,1212,832) translate(-0.40993923611111427 47.39214409722222)"/><path d="M680 542.67v121.66a6 6 0 0 0 6 6h654a6 6 0 0 1 6 6V800.5" stroke="#5e5e5e" stroke-width="2" fill="none"/><path d="M680.98 542.7H679v-1.03H681z" stroke="#5e5e5e" stroke-width=".05" fill="#5e5e5e"/><path d="M1346 815.76l-4.63-14.26h9.27z" stroke="#5e5e5e" stroke-width="2" fill="#5e5e5e"/><path d="M721 1286a6 6 0 0 1 6-6h380a6 6 0 0 1 6 6v88.67a6 6 0 0 1-6 6H727a6 6 0 0 1-6-6z" stroke="#000" stroke-width="2" fill="#edf5ff"/><use xlink:href="#p" transform="matrix(1,0,0,1,732.9999999999999,1292) translate(9.121853298611086 47.74305555555556)"/><path d="M917 1222.67v37.83" stroke="#5e5e5e" stroke-width="2" fill="none"/><path d="M917.98 1222.7H916v-1.03H918z" stroke="#5e5e5e" stroke-width=".05" fill="#5e5e5e"/><path d="M917 1275.76l-4.63-14.26h9.26z" stroke="#5e5e5e" stroke-width="2" fill="#5e5e5e"/><path d="M77.53 1066a6 6 0 0 1 6-6h259.23a6 6 0 0 1 6 6v78.33a6 6 0 0 1-6 6H83.53a6 6 0 0 1-6-6z" stroke="#000" stroke-width="2" fill="#e3fae3"/><use xlink:href="#t" transform="matrix(1,0,0,1,89.52567237163802,1072) translate(39.16059027777777 42.52430555555556)"/><path d="M77.53 1231.17a6 6 0 0 1 6-6h259.23a6 6 0 0 1 6 6v78.33a6 6 0 0 1-6 6H83.53a6 6 0 0 1-6-6z" stroke="#000" stroke-width="2" fill="#e3fae3"/><use xlink:href="#u" transform="matrix(1,0,0,1,89.52567237163802,1237.1666666666667) translate(58.13248697916666 42.52430555555556)"/><use xlink:href="#v" transform="matrix(1,0,0,1,89.52567237163802,1237.1666666666667) translate(120.01942274305556 42.52430555555556)"/><path d="M77.53 1406a6 6 0 0 1 6-6h259.23a6 6 0 0 1 6 6v78.33a6 6 0 0 1-6 6H83.53a6 6 0 0 1-6-6z" stroke="#000" stroke-width="2" fill="#e3fae3"/><use xlink:href="#w" transform="matrix(1,0,0,1,89.52567237163802,1412) translate(33.10319010416666 42.52430555555556)"/><use xlink:href="#x" transform="matrix(1,0,0,1,89.52567237163802,1412) translate(147.30457899305554 42.52430555555556)"/><path d="M213.14 1152.33v53.32" stroke="#5e5e5e" stroke-width="2" fill="none"/><path d="M214.12 1152.36h-1.95v-1.03h1.95z" stroke="#5e5e5e" stroke-width=".05" fill="#5e5e5e"/><path d="M213.14 1220.93l-4.63-14.27h9.28z" stroke="#5e5e5e" stroke-width="2" fill="#5e5e5e"/><path d="M213.14 1317.5v63" stroke="#5e5e5e" stroke-width="2" fill="none"/><path d="M214.12 1317.53h-1.95v-1.03h1.95z" stroke="#5e5e5e" stroke-width=".05" fill="#5e5e5e"/><path d="M213.14 1395.76l-4.63-14.26h9.28z" stroke="#5e5e5e" stroke-width="2" fill="#5e5e5e"/><path d="M1198 870.33h-12a6 6 0 0 0-6 6V1084a6 6 0 0 1-6 6H922c0-2.76-2.24-5-5-5s-5 2.24-5 5H790.88a6 6 0 0 0-6 6v3.17a6 6 0 0 1-6 6h-410.6" stroke="#5e5e5e" stroke-width="2" fill="none"/><path d="M1199 871.3h-1.03v-1.94h1.03z" stroke="#5e5e5e" stroke-width=".05" fill="#5e5e5e"/><path d="M353 1105.17l14.26-4.64v9.27z" stroke="#5e5e5e" stroke-width="2" fill="#5e5e5e"/><path d="M757 966a6 6 0 0 1 6-6h308a6 6 0 0 1 6 6v88.67a6 6 0 0 1-6 6H763a6 6 0 0 1-6-6z" stroke="#000" stroke-width="2" fill="#edf5ff"/><use xlink:href="#y" transform="matrix(1,0,0,1,768.9999999999998,972) translate(11.908420138888886 47.74305555555556)"/><path d="M719 871h-33a6 6 0 0 0-6 6v178.67a6 6 0 0 1-6 6h-93.62a6 6 0 0 0-6 6v31.5a6 6 0 0 1-6 6H368.26" stroke="#5e5e5e" stroke-width="2" fill="none"/><path d="M720 871.98h-1.03V870H720z" stroke="#5e5e5e" stroke-width=".05" fill="#5e5e5e"/><path d="M353 1105.17l14.26-4.64v9.27z" stroke="#5e5e5e" stroke-width="2" fill="#5e5e5e"/><path d="M755 1010.33h-33a6 6 0 0 0-6 6v39.34a6 6 0 0 1-6 6H580.38a6 6 0 0 0-6 6v31.5a6 6 0 0 1-6 6H368.26" stroke="#5e5e5e" stroke-width="2" fill="none"/><path d="M756 1011.3h-1.03v-1.94H756z" stroke="#5e5e5e" stroke-width=".05" fill="#5e5e5e"/><path d="M353 1105.17l14.26-4.64v9.27z" stroke="#5e5e5e" stroke-width="2" fill="#5e5e5e"/><path d="M719 1170.33H540.88a6 6 0 0 1-6-6v-53.16a6 6 0 0 0-6-6H368.26" stroke="#5e5e5e" stroke-width="2" fill="none"/><path d="M720 1171.3h-1.03v-1.94H720z" stroke="#5e5e5e" stroke-width=".05" fill="#5e5e5e"/><path d="M353 1105.17l14.26-4.64v9.27z" stroke="#5e5e5e" stroke-width="2" fill="#5e5e5e"/><path d="M719 1330.33H540.88a6 6 0 0 1-6-6v-213.16a6 6 0 0 0-6-6H368.26" stroke="#5e5e5e" stroke-width="2" fill="none"/><path d="M720 1331.3h-1.03v-1.94H720z" stroke="#5e5e5e" stroke-width=".05" fill="#5e5e5e"/><path d="M353 1105.17l14.26-4.64v9.27z" stroke="#5e5e5e" stroke-width="2" fill="#5e5e5e"/><path d="M640 1466a6 6 0 0 1 6-6h888a6 6 0 0 1 6 6v288a6 6 0 0 1-6 6H646a6 6 0 0 1-6-6z" stroke="#000" stroke-width="2" fill="#fcfcca"/><g><use xlink:href="#q" transform="matrix(1,0,0,1,645,1465) translate(349.765625 20.666666666666668)"/><use xlink:href="#m" transform="matrix(1,0,0,1,645,1465) translate(408.578125 20.666666666666668)"/><use xlink:href="#z" transform="matrix(1,0,0,1,645,1465) translate(440.078125 20.666666666666668)"/></g><path d="M940 1566a6 6 0 0 1 6-6h380a6 6 0 0 1 6 6v88.67a6 6 0 0 1-6 6H946a6 6 0 0 1-6-6z" stroke="#000" stroke-width="2" fill="#d7faf5"/><g><use xlink:href="#A" transform="matrix(1,0,0,1,952,1572) translate(103.34874131944444 28.493055555555557)"/><use xlink:href="#B" transform="matrix(1,0,0,1,952,1572) translate(127.79915364583333 63.98524305555556)"/></g><path d="M1346 922.67v33a6 6 0 0 1-6 6h-44a6 6 0 0 0-6 6V1513a6 6 0 0 1-6 6h-142a6 6 0 0 0-6 6v15.5" stroke="#5e5e5e" stroke-width="2" fill="none"/><path d="M1346.97 922.7h-1.94v-1.03h1.94z" stroke="#5e5e5e" stroke-width=".05" fill="#5e5e5e"/><path d="M1136 1555.76l-4.63-14.26h9.27z" stroke="#5e5e5e" stroke-width="2" fill="#5e5e5e"/><defs><path d="M783 20c-382 0-661-292-661-764 0-473 279-766 661-766 302 0 548 182 601 489h-190c-42-204-217-313-411-313-268 0-476 208-476 590 0 381 209 588 476 588 195 0 369-110 411-313h190c-52 303-296 489-601 489" id="C"/><path d="M471 26C259 26 90-98 90-318c0-256 228-303 435-329 202-27 287-16 287-108 0-139-79-219-234-219-161 0-248 86-283 164l-173-57c86-203 278-265 451-265 150 0 419 46 419 395V0H815v-152h-12C765-73 660 26 471 26zm31-159c199 0 310-134 310-271v-155c-30 35-226 55-295 64-131 17-246 59-246 186 0 116 97 176 231 176" id="D"/><path d="M158 418v-1536h174v179h20c37-59 106-193 324-193 279 0 474 222 474 576 0 356-194 580-473 580-213 0-288-135-325-197h-14v591H158zm492-555c209 0 317-186 317-421 0-232-105-413-317-413-206 0-314 166-314 413 0 249 111 421 314 421" id="E"/><g id="a"><use transform="matrix(0.010850694444444444,0,0,0.010850694444444444,0,0)" xlink:href="#C"/><use transform="matrix(0.010850694444444444,0,0,0.010850694444444444,16.23263888888889,0)" xlink:href="#D"/><use transform="matrix(0.010850694444444444,0,0,0.010850694444444444,28.7109375,0)" xlink:href="#E"/><use transform="matrix(0.010850694444444444,0,0,0.010850694444444444,42.53472222222222,0)" xlink:href="#D"/></g><path d="M577 24c-279 0-473-224-473-580 0-354 195-576 474-576 218 0 287 134 324 193h14v-551h180V0H922v-173h-20C865-111 790 24 577 24zm27-161c203 0 314-172 314-421 0-247-108-413-314-413-212 0-317 181-317 413 0 235 108 421 317 421" id="F"/><path d="M628 24c-324 0-524-230-524-574 0-343 198-582 503-582 237 0 487 146 487 559v75H286c9 234 145 362 343 362 132 0 231-58 273-172l174 48C1024-91 857 24 628 24zM287-650h624c-17-190-120-322-304-322-192 0-309 151-320 322" id="G"/><g id="b"><use transform="matrix(0.010850694444444444,0,0,0.010850694444444444,0,0)" xlink:href="#F"/><use transform="matrix(0.010850694444444444,0,0,0.010850694444444444,13.606770833333332,0)" xlink:href="#G"/></g><path d="M158 0v-1118h174v172h12c41-113 157-188 290-188 26 0 70 2 91 3v181c-11-2-60-10-108-10-161 0-279 109-279 260V0H158" id="H"/><path d="M538 24C308 24 148-78 108-271l171-41c32 123 123 178 257 178 156 0 256-77 256-169 0-77-54-128-164-154l-186-44c-203-48-300-148-300-305 0-192 176-326 414-326 230 0 351 112 402 269l-163 42c-31-80-94-158-238-158-133 0-233 69-233 162 0 83 57 129 188 160l169 40c203 48 298 149 298 302 0 196-179 339-441 339" id="I"/><path d="M338-670V0H158v-1118h173l1 207c72-158 192-221 342-221 226 0 378 139 378 422V0H872v-695c0-172-96-275-252-275-161 0-282 109-282 300" id="J"/><path d="M598-1118v154H368v674c0 100 37 144 132 144 23 0 62-6 92-12L629-6c-37 13-88 20-134 20-193 0-307-107-307-290v-688H20v-154h168v-266h180v266h230" id="K"/><path d="M613 24c-304 0-509-231-509-576 0-350 205-580 509-580 216 0 392 114 453 309l-173 49c-33-115-133-197-280-197-223 0-326 196-326 419 0 220 103 415 326 415 150 0 252-85 285-206l172 49C1010-95 832 24 613 24" id="L"/><path d="M158 0v-1118h180V0H158zm91-1301c-68 0-125-53-125-119s57-119 125-119c69 0 126 53 126 119s-57 119-126 119" id="M"/><path d="M613 24c-304 0-509-231-509-576 0-350 205-580 509-580 305 0 511 230 511 580 0 345-206 576-511 576zm0-161c226 0 329-195 329-415 0-222-103-419-329-419-223 0-326 196-326 419 0 220 103 415 326 415" id="N"/><g id="c"><use transform="matrix(0.010850694444444444,0,0,0.010850694444444444,0,0)" xlink:href="#E"/><use transform="matrix(0.010850694444444444,0,0,0.010850694444444444,13.606770833333332,0)" xlink:href="#H"/><use transform="matrix(0.010850694444444444,0,0,0.010850694444444444,21.603732638888886,0)" xlink:href="#G"/><use transform="matrix(0.010850694444444444,0,0,0.010850694444444444,34.55946180555555,0)" xlink:href="#I"/><use transform="matrix(0.010850694444444444,0,0,0.010850694444444444,46.289062499999986,0)" xlink:href="#G"/><use transform="matrix(0.010850694444444444,0,0,0.010850694444444444,59.24479166666666,0)" xlink:href="#J"/><use transform="matrix(0.010850694444444444,0,0,0.010850694444444444,72.37413194444443,0)" xlink:href="#K"/><use transform="matrix(0.010850694444444444,0,0,0.010850694444444444,79.75260416666664,0)" xlink:href="#D"/><use transform="matrix(0.010850694444444444,0,0,0.010850694444444444,92.23090277777776,0)" xlink:href="#L"/><use transform="matrix(0.010850694444444444,0,0,0.010850694444444444,104.92621527777776,0)" xlink:href="#M"/><use transform="matrix(0.010850694444444444,0,0,0.010850694444444444,110.3081597222222,0)" xlink:href="#N"/><use transform="matrix(0.010850694444444444,0,0,0.010850694444444444,123.63281249999997,0)" xlink:href="#J"/></g><path fill="#333" d="M135 0v-1490h468l242 684c30 94 76 293 111 455 34-161 80-360 110-455l238-684h470V0h-307c0-447-3-765 11-1227-122 503-246 788-395 1227H826C676-435 552-717 427-1215c15 453 11 775 11 1215H135" id="O"/><path fill="#333" d="M440 22C227 22 68-92 68-313c0-250 202-322 422-343 195-21 271-24 271-105 0-95-63-149-175-149-116 0-187 57-211 129l-275-46c57-194 237-305 487-305 240 0 474 108 474 379V0H777v-155h-10C713-51 605 22 440 22zm85-211c140 0 238-93 238-211v-121c-37 26-156 42-222 51-111 16-185 59-185 149 0 87 70 132 169 132" id="P"/><path fill="#333" d="M128 0v-1118h300V0H128zm150-1264c-91 0-165-68-165-154 0-85 74-154 165-154 90 0 165 69 165 154 0 86-75 154-165 154" id="Q"/><path fill="#333" d="M428-647V0H128v-1118h283l4 231c63-156 176-245 348-245 232 0 384 159 384 421V0H847v-659c0-139-76-222-202-222-128 0-217 86-217 234" id="R"/><path fill="#333" d="M786 20C389 20 94-260 94-744c0-487 299-766 692-766 339 0 597 194 641 529h-309c-28-162-156-258-326-258-233 0-388 179-388 495 0 323 157 493 387 493 170 0 298-97 328-259h309c-34 277-266 530-642 530" id="S"/><path fill="#333" d="M428-647V0H128v-1490h294v586c65-146 175-228 341-228 232 0 385 159 385 421V0H847v-659c0-139-76-222-202-222-128 0-217 86-217 234" id="T"/><path fill="#333" d="M789 20C394 20 94-260 94-744c0-487 300-766 695-766s695 279 695 766c0 485-300 764-695 764zm0-271c231 0 385-174 385-493 0-321-154-495-385-495s-385 175-385 495c0 319 154 493 385 493" id="U"/><path fill="#333" d="M750-1118v229H516V0H217v-889H20v-229h197v-86c0-238 156-356 363-356 94 0 178 20 215 31l-54 226c-25-7-61-15-100-15-123-3-131 84-125 200h234" id="V"/><path fill="#333" d="M135 0v-1490h581c339 0 533 192 533 485 0 204-94 351-264 424L1302 0H964L680-532H440V0H135zm305-779h220c186 0 274-77 274-226 0-150-88-233-275-233H440v459" id="W"/><path fill="#333" d="M633 22C291 22 81-200 81-553c0-345 210-579 537-579 292 0 525 185 525 567v84H378c7 183 109 277 260 277 105 0 184-46 216-132l272 51C1071-99 893 22 633 22zM380-669h474c-15-146-94-237-233-237-143 0-229 99-241 237" id="X"/><path fill="#333" d="M572 22C302 22 117-98 78-306l279-48c29 105 101 156 224 156 114 0 185-48 185-115 0-118-228-130-337-155-215-49-322-150-322-317 0-215 187-347 470-347 265 0 424 116 466 298l-266 47c-24-76-87-130-196-130-98 0-174 46-174 113 0 56 38 95 144 117l201 40c216 44 320 143 320 302 0 220-207 367-500 367" id="Y"/><path fill="#333" d="M128 418v-1536h295v188h14c41-89 129-202 319-202 248 0 453 193 453 575 0 372-197 576-455 576-183 0-275-108-317-198h-9v597H128zm534-640c156 0 240-139 240-336 0-196-83-334-240-334-154 0-241 131-241 334 0 202 88 336 241 336" id="Z"/><path fill="#333" d="M628 22C291 22 81-210 81-554c0-346 210-578 547-578 336 0 547 232 547 578 0 344-211 576-547 576zm0-236c160 0 242-146 242-341 0-197-82-341-242-341S387-753 387-555c0 195 81 341 241 341" id="aa"/><path fill="#333" d="M754 19C571 19 479-89 437-179h-14V0H128v-1490h300v560h9c41-89 129-202 319-202 248 0 453 193 453 575 0 372-197 576-455 576zm-92-241c156 0 240-139 240-336 0-196-83-334-240-334-154 0-241 131-241 334 0 202 88 336 241 336" id="ab"/><path fill="#333" d="M428-1490V0H128v-1490h300" id="ac"/><path fill="#333" d="M683-1118v229H474v562c0 71 29 104 102 104 23 0 73-7 95-13l43 225C647 9 580 16 520 16 296 16 174-96 174-301v-588H20v-229h154v-266h300v266h209" id="ad"/><path fill="#333" d="M120 396l69-226c123 42 245 23 254-107l8-60L31-1118h319c87 288 199 559 259 872 72-308 185-583 277-872h315L726 132c-68 181-186 294-410 294-79 0-153-13-196-30" id="ae"/><path fill="#333" d="M49 0l509-1490h400L1480 0h-339l-115-346H497L386 0H49zm524-585h374c-75-213-124-402-192-666-66 268-110 453-182 666" id="af"/><path fill="#333" d="M513 14c-232 0-385-159-385-421v-711h300v659c0 139 76 222 202 222 127 0 217-86 217-234v-647h301V0H864l-4-232C797-74 683 14 513 14" id="ag"/><g id="d"><use transform="matrix(0.01193576388888889,0,0,0.01193576388888889,0,0)" xlink:href="#O"/><use transform="matrix(0.01193576388888889,0,0,0.01193576388888889,22.773437500000004,0)" xlink:href="#P"/><use transform="matrix(0.01193576388888889,0,0,0.01193576388888889,36.96506076388889,0)" xlink:href="#Q"/><use transform="matrix(0.01193576388888889,0,0,0.01193576388888889,43.58940972222223,0)" xlink:href="#R"/><use transform="matrix(0.01193576388888889,0,0,0.01193576388888889,58.80750868055556,0)" xlink:href="#S"/><use transform="matrix(0.01193576388888889,0,0,0.01193576388888889,76.89019097222223,0)" xlink:href="#T"/><use transform="matrix(0.01193576388888889,0,0,0.01193576388888889,92.10828993055556,0)" xlink:href="#P"/><use transform="matrix(0.01193576388888889,0,0,0.01193576388888889,106.29991319444446,0)" xlink:href="#Q"/><use transform="matrix(0.01193576388888889,0,0,0.01193576388888889,112.92426215277777,0)" xlink:href="#R"/><use transform="matrix(0.01193576388888889,0,0,0.01193576388888889,128.14236111111111,0)" xlink:href="#U"/><use transform="matrix(0.01193576388888889,0,0,0.01193576388888889,146.97699652777777,0)" xlink:href="#V"/><use transform="matrix(0.01193576388888889,0,0,0.01193576388888889,156.70464409722223,0)" xlink:href="#W"/><use transform="matrix(0.01193576388888889,0,0,0.01193576388888889,172.45985243055554,0)" xlink:href="#X"/><use transform="matrix(0.01193576388888889,0,0,0.01193576388888889,187.021484375,0)" xlink:href="#Y"/><use transform="matrix(0.01193576388888889,0,0,0.01193576388888889,200.71180555555551,0)" xlink:href="#Z"/><use transform="matrix(0.01193576388888889,0,0,0.01193576388888889,216.1208767361111,0)" xlink:href="#aa"/><use transform="matrix(0.01193576388888889,0,0,0.01193576388888889,231.11219618055554,0)" xlink:href="#R"/><use transform="matrix(0.01193576388888889,0,0,0.01193576388888889,246.33029513888886,0)" xlink:href="#Y"/><use transform="matrix(0.01193576388888889,0,0,0.01193576388888889,260.02061631944446,0)" xlink:href="#Q"/><use transform="matrix(0.01193576388888889,0,0,0.01193576388888889,266.64496527777777,0)" xlink:href="#ab"/><use transform="matrix(0.01193576388888889,0,0,0.01193576388888889,282.0540364583333,0)" xlink:href="#Q"/><use transform="matrix(0.01193576388888889,0,0,0.01193576388888889,288.67838541666663,0)" xlink:href="#ac"/><use transform="matrix(0.01193576388888889,0,0,0.01193576388888889,295.30273437499994,0)" xlink:href="#Q"/><use transform="matrix(0.01193576388888889,0,0,0.01193576388888889,301.92708333333326,0)" xlink:href="#ad"/><use transform="matrix(0.01193576388888889,0,0,0.01193576388888889,311.41601562499994,0)" xlink:href="#ae"/><use transform="matrix(0.01193576388888889,0,0,0.01193576388888889,324.4737413194444,0)" xlink:href="#af"/><use transform="matrix(0.01193576388888889,0,0,0.01193576388888889,342.72352430555554,0)" xlink:href="#ag"/><use transform="matrix(0.01193576388888889,0,0,0.01193576388888889,357.94162326388886,0)" xlink:href="#ad"/><use transform="matrix(0.01193576388888889,0,0,0.01193576388888889,366.953125,0)" xlink:href="#T"/></g><g id="e"><use transform="matrix(0.010850694444444444,0,0,0.010850694444444444,0,0)" xlink:href="#C"/><use transform="matrix(0.010850694444444444,0,0,0.010850694444444444,16.23263888888889,0)" xlink:href="#D"/><use transform="matrix(0.010850694444444444,0,0,0.010850694444444444,28.7109375,0)" xlink:href="#E"/><use transform="matrix(0.010850694444444444,0,0,0.010850694444444444,42.53472222222222,0)" xlink:href="#D"/></g><g id="f"><use transform="matrix(0.010850694444444444,0,0,0.010850694444444444,0,0)" xlink:href="#F"/><use transform="matrix(0.010850694444444444,0,0,0.010850694444444444,13.606770833333332,0)" xlink:href="#G"/></g><path d="M657 26c-323 0-524-166-541-416h195c15 169 171 246 346 246 202 0 356-106 356-265 5-203-294-238-475-293-239-73-380-191-380-389 0-252 224-419 512-419 294 0 499 171 508 396H992c-17-145-151-228-328-228-193 0-321 102-321 242 0 156 175 211 284 241l149 41c160 44 422 134 422 412 0 244-197 432-541 432" id="ah"/><path d="M481 0L54-1118h197c107 314 236 620 325 951 87-331 217-637 324-951h197L670 0H481" id="ai"/><g id="g"><use transform="matrix(0.010850694444444444,0,0,0.010850694444444444,0,0)" xlink:href="#ah"/><use transform="matrix(0.010850694444444444,0,0,0.010850694444444444,14.2578125,0)" xlink:href="#G"/><use transform="matrix(0.010850694444444444,0,0,0.010850694444444444,27.213541666666664,0)" xlink:href="#H"/><use transform="matrix(0.010850694444444444,0,0,0.010850694444444444,35.92664930555555,0)" xlink:href="#ai"/><use transform="matrix(0.010850694444444444,0,0,0.010850694444444444,48.41579861111111,0)" xlink:href="#M"/><use transform="matrix(0.010850694444444444,0,0,0.010850694444444444,53.79774305555556,0)" xlink:href="#L"/><use transform="matrix(0.010850694444444444,0,0,0.010850694444444444,66.49305555555554,0)" xlink:href="#M"/><use transform="matrix(0.010850694444444444,0,0,0.010850694444444444,71.87499999999999,0)" xlink:href="#N"/></g><path fill="#333" d="M681 22C323 22 94-145 85-462h297c10 151 131 226 296 226 163 0 271-77 271-190 0-102-95-149-257-189l-164-41c-252-61-403-188-403-405 0-269 236-449 560-449 330 0 546 183 551 445H941c-11-119-106-188-259-188-156 0-244 72-244 172-3 156 226 185 373 221 250 61 445 186 445 436 0 271-213 446-575 446" id="aj"/><path fill="#333" d="M128 0v-1118h290v195h12c54-169 184-238 367-200v268c-27-8-86-15-130-15-138 0-239 95-239 234V0H128" id="ak"/><path fill="#333" d="M443 0L31-1118h319c90 293 199 572 268 885 66-313 175-593 264-885h315L784 0H443" id="al"/><path fill="#333" d="M628 22C291 22 81-210 81-554c0-346 210-578 547-578 265 0 455 142 497 372l-279 52c-25-116-99-188-215-188-160 0-244 139-244 341 0 200 84 341 244 341 116 0 193-74 217-195l279 51C1085-123 896 22 628 22" id="am"/><g id="h"><use transform="matrix(0.01193576388888889,0,0,0.01193576388888889,0,0)" xlink:href="#af"/><use transform="matrix(0.01193576388888889,0,0,0.01193576388888889,18.249782986111114,0)" xlink:href="#ag"/><use transform="matrix(0.01193576388888889,0,0,0.01193576388888889,33.46788194444445,0)" xlink:href="#ad"/><use transform="matrix(0.01193576388888889,0,0,0.01193576388888889,42.47938368055556,0)" xlink:href="#T"/><use transform="matrix(0.01193576388888889,0,0,0.01193576388888889,57.69748263888889,0)" xlink:href="#aj"/><use transform="matrix(0.01193576388888889,0,0,0.01193576388888889,73.70334201388889,0)" xlink:href="#X"/><use transform="matrix(0.01193576388888889,0,0,0.01193576388888889,88.26497395833333,0)" xlink:href="#ak"/><use transform="matrix(0.01193576388888889,0,0,0.01193576388888889,98.6013454861111,0)" xlink:href="#al"/><use transform="matrix(0.01193576388888889,0,0,0.01193576388888889,113.25846354166666,0)" xlink:href="#Q"/><use transform="matrix(0.01193576388888889,0,0,0.01193576388888889,119.88281249999999,0)" xlink:href="#am"/><use transform="matrix(0.01193576388888889,0,0,0.01193576388888889,134.2654079861111,0)" xlink:href="#X"/></g><path fill="#333" d="M180 0v-1490h270l367 940c28 72 75 218 110 339 35-117 81-264 110-339l362-940h271V0h-187c2-448-5-837 7-1287-157 497-311 829-483 1287H842C666-458 514-784 354-1284c12 438 5 843 7 1284H180" id="an"/><path fill="#333" d="M613 24c-304 0-509-231-509-576 0-350 205-580 509-580 305 0 511 230 511 580 0 345-206 576-511 576zm0-161c226 0 329-195 329-415 0-222-103-419-329-419-223 0-326 196-326 419 0 220 103 415 326 415" id="ao"/><path fill="#333" d="M577 24c-279 0-473-224-473-580 0-354 195-576 474-576 218 0 287 134 324 193h14v-551h180V0H922v-173h-20C865-111 790 24 577 24zm27-161c203 0 314-172 314-421 0-247-108-413-314-413-212 0-317 181-317 413 0 235 108 421 317 421" id="ap"/><path fill="#333" d="M628 24c-324 0-524-230-524-574 0-343 198-582 503-582 237 0 487 146 487 559v75H286c9 234 145 362 343 362 132 0 231-58 273-172l174 48C1024-91 857 24 628 24zM287-650h624c-17-190-120-322-304-322-192 0-309 151-320 322" id="aq"/><path fill="#333" d="M338-1490V0H158v-1490h180" id="ar"/><path fill="#333" d="M538 24C308 24 148-78 108-271l171-41c32 123 123 178 257 178 156 0 256-77 256-169 0-77-54-128-164-154l-186-44c-203-48-300-148-300-305 0-192 176-326 414-326 230 0 351 112 402 269l-163 42c-31-80-94-158-238-158-133 0-233 69-233 162 0 83 57 129 188 160l169 40c203 48 298 149 298 302 0 196-179 339-441 339" id="as"/><g id="i"><use transform="matrix(0.010416666666666668,0,0,0.010416666666666668,0,0)" xlink:href="#an"/><use transform="matrix(0.010416666666666668,0,0,0.010416666666666668,19.270833333333336,0)" xlink:href="#ao"/><use transform="matrix(0.010416666666666668,0,0,0.010416666666666668,32.0625,0)" xlink:href="#ap"/><use transform="matrix(0.010416666666666668,0,0,0.010416666666666668,45.12499999999999,0)" xlink:href="#aq"/><use transform="matrix(0.010416666666666668,0,0,0.010416666666666668,57.5625,0)" xlink:href="#ar"/><use transform="matrix(0.010416666666666668,0,0,0.010416666666666668,62.729166666666664,0)" xlink:href="#ao"/><use transform="matrix(0.010416666666666668,0,0,0.010416666666666668,75.52083333333333,0)" xlink:href="#as"/></g><path fill="#333" d="M1163 418H863v-597h-10C812-89 719 19 537 19 279 19 81-185 81-557c0-382 206-575 454-575 190 0 278 113 318 202h15v-188h295V418zM629-222c153 0 240-134 240-336 0-203-86-334-240-334-158 0-240 138-240 334 0 197 84 336 240 336" id="at"/><g id="j"><use transform="matrix(0.01193576388888889,0,0,0.01193576388888889,0,0)" xlink:href="#af"/><use transform="matrix(0.01193576388888889,0,0,0.01193576388888889,18.249782986111114,0)" xlink:href="#ag"/><use transform="matrix(0.01193576388888889,0,0,0.01193576388888889,33.46788194444445,0)" xlink:href="#ad"/><use transform="matrix(0.01193576388888889,0,0,0.01193576388888889,42.47938368055556,0)" xlink:href="#T"/><use transform="matrix(0.01193576388888889,0,0,0.01193576388888889,57.69748263888889,0)" xlink:href="#W"/><use transform="matrix(0.01193576388888889,0,0,0.01193576388888889,73.45269097222223,0)" xlink:href="#X"/><use transform="matrix(0.01193576388888889,0,0,0.01193576388888889,88.01432291666667,0)" xlink:href="#at"/><use transform="matrix(0.01193576388888889,0,0,0.01193576388888889,103.42339409722223,0)" xlink:href="#ag"/><use transform="matrix(0.01193576388888889,0,0,0.01193576388888889,118.64149305555557,0)" xlink:href="#X"/><use transform="matrix(0.01193576388888889,0,0,0.01193576388888889,133.203125,0)" xlink:href="#Y"/><use transform="matrix(0.01193576388888889,0,0,0.01193576388888889,146.89344618055554,0)" xlink:href="#ad"/></g><g id="k"><use transform="matrix(0.01193576388888889,0,0,0.01193576388888889,0,0)" xlink:href="#af"/><use transform="matrix(0.01193576388888889,0,0,0.01193576388888889,18.249782986111114,0)" xlink:href="#ag"/><use transform="matrix(0.01193576388888889,0,0,0.01193576388888889,33.46788194444445,0)" xlink:href="#ad"/><use transform="matrix(0.01193576388888889,0,0,0.01193576388888889,42.47938368055556,0)" xlink:href="#T"/><use transform="matrix(0.01193576388888889,0,0,0.01193576388888889,57.69748263888889,0)" xlink:href="#W"/><use transform="matrix(0.01193576388888889,0,0,0.01193576388888889,73.45269097222223,0)" xlink:href="#X"/><use transform="matrix(0.01193576388888889,0,0,0.01193576388888889,88.01432291666667,0)" xlink:href="#Y"/><use transform="matrix(0.01193576388888889,0,0,0.01193576388888889,101.70464409722223,0)" xlink:href="#ag"/><use transform="matrix(0.01193576388888889,0,0,0.01193576388888889,116.92274305555557,0)" xlink:href="#ac"/><use transform="matrix(0.01193576388888889,0,0,0.01193576388888889,123.90516493055557,0)" xlink:href="#ad"/></g><path fill="#333" d="M783 20c-382 0-661-292-661-764 0-473 279-766 661-766 302 0 548 182 601 489h-190c-42-204-217-313-411-313-268 0-476 208-476 590 0 381 209 588 476 588 195 0 369-110 411-313h190c-52 303-296 489-601 489" id="au"/><path fill="#333" d="M471 26C259 26 90-98 90-318c0-256 228-303 435-329 202-27 287-16 287-108 0-139-79-219-234-219-161 0-248 86-283 164l-173-57c86-203 278-265 451-265 150 0 419 46 419 395V0H815v-152h-12C765-73 660 26 471 26zm31-159c199 0 310-134 310-271v-155c-30 35-226 55-295 64-131 17-246 59-246 186 0 116 97 176 231 176" id="av"/><path fill="#333" d="M338-670V0H158v-1118h173l1 207c72-158 192-221 342-221 226 0 378 139 378 422V0H872v-695c0-172-96-275-252-275-161 0-282 109-282 300" id="aw"/><g id="l"><use transform="matrix(0.010416666666666668,0,0,0.010416666666666668,0,0)" xlink:href="#au"/><use transform="matrix(0.010416666666666668,0,0,0.010416666666666668,15.583333333333336,0)" xlink:href="#av"/><use transform="matrix(0.010416666666666668,0,0,0.010416666666666668,27.562500000000004,0)" xlink:href="#ap"/><use transform="matrix(0.010416666666666668,0,0,0.010416666666666668,40.62500000000001,0)" xlink:href="#aq"/><use transform="matrix(0.010416666666666668,0,0,0.010416666666666668,53.06250000000001,0)" xlink:href="#aw"/><use transform="matrix(0.010416666666666668,0,0,0.010416666666666668,65.66666666666667,0)" xlink:href="#av"/></g><g id="m"><use transform="matrix(0.010416666666666668,0,0,0.010416666666666668,0,0)" xlink:href="#ap"/><use transform="matrix(0.010416666666666668,0,0,0.010416666666666668,13.062500000000002,0)" xlink:href="#aq"/></g><path fill="#333" d="M180 0v-1490h510c348 0 508 194 508 460 0 198-88 351-276 417L1256 0h-220L726-579c-117 2-238 0-356 1V0H180zm190-747h312c235 0 327-108 327-283 0-177-92-293-329-293H370v576" id="ax"/><path fill="#333" d="M158 418v-1536h174v179h20c37-59 106-193 324-193 279 0 474 222 474 576 0 356-194 580-473 580-213 0-288-135-325-197h-14v591H158zm492-555c209 0 317-186 317-421 0-232-105-413-317-413-206 0-314 166-314 413 0 249 111 421 314 421" id="ay"/><path fill="#333" d="M677 24c-213 0-288-135-325-197h-20V0H158v-1490h180v551h14c37-59 106-193 324-193 279 0 474 222 474 576 0 356-194 580-473 580zm-27-161c209 0 317-186 317-421 0-232-105-413-317-413-206 0-314 166-314 413 0 249 111 421 314 421" id="az"/><path fill="#333" d="M158 0v-1118h180V0H158zm91-1301c-68 0-125-53-125-119s57-119 125-119c69 0 126 53 126 119s-57 119-126 119" id="aA"/><g id="n"><use transform="matrix(0.010416666666666668,0,0,0.010416666666666668,0,0)" xlink:href="#ax"/><use transform="matrix(0.010416666666666668,0,0,0.010416666666666668,13.416666666666668,0)" xlink:href="#aq"/><use transform="matrix(0.010416666666666668,0,0,0.010416666666666668,25.854166666666668,0)" xlink:href="#as"/><use transform="matrix(0.010416666666666668,0,0,0.010416666666666668,37.11458333333334,0)" xlink:href="#ay"/><use transform="matrix(0.010416666666666668,0,0,0.010416666666666668,50.177083333333336,0)" xlink:href="#ao"/><use transform="matrix(0.010416666666666668,0,0,0.010416666666666668,62.968750000000014,0)" xlink:href="#aw"/><use transform="matrix(0.010416666666666668,0,0,0.010416666666666668,75.57291666666669,0)" xlink:href="#as"/><use transform="matrix(0.010416666666666668,0,0,0.010416666666666668,86.83333333333336,0)" xlink:href="#av"/><use transform="matrix(0.010416666666666668,0,0,0.010416666666666668,98.81250000000003,0)" xlink:href="#az"/><use transform="matrix(0.010416666666666668,0,0,0.010416666666666668,111.87500000000003,0)" xlink:href="#aA"/><use transform="matrix(0.010416666666666668,0,0,0.010416666666666668,117.0416666666667,0)" xlink:href="#ar"/><use transform="matrix(0.010416666666666668,0,0,0.010416666666666668,122.20833333333337,0)" xlink:href="#aA"/><use transform="matrix(0.010416666666666668,0,0,0.010416666666666668,127.37500000000006,0)" xlink:href="#ap"/><use transform="matrix(0.010416666666666668,0,0,0.010416666666666668,140.43750000000006,0)" xlink:href="#av"/><use transform="matrix(0.010416666666666668,0,0,0.010416666666666668,152.4166666666667,0)" xlink:href="#ap"/></g><path fill="#333" d="M750 21c-371 0-615-218-615-544v-967h305v942c0 174 123 299 310 299s309-125 309-299v-942h306v967c0 326-247 544-615 544" id="aB"/><path fill="#333" d="M135 0v-1490h997v253H440v360h640v249H440v375h694V0H135" id="aC"/><path fill="#333" d="M42 0l360-574-338-544h324c72 124 151 261 209 394 58-134 140-271 215-394h318L785-570 1146 0H824c-79-136-169-280-234-425C528-278 439-134 360 0H42" id="aD"/><path fill="#333" d="M135 0v-1490h305v602h649v-602h306V0h-306v-635H440V0H135" id="aE"/><path fill="#333" d="M537 19C279 19 81-185 81-557c0-382 206-575 454-575 190 0 278 113 318 202h10v-560h300V0H868v-179h-15C812-89 719 19 537 19zm92-241c153 0 240-134 240-336 0-203-86-334-240-334-158 0-240 138-240 334 0 197 84 336 240 336" id="aF"/><g id="o"><use transform="matrix(0.01193576388888889,0,0,0.01193576388888889,0,0)" xlink:href="#aB"/><use transform="matrix(0.01193576388888889,0,0,0.01193576388888889,17.891710069444446,0)" xlink:href="#Y"/><use transform="matrix(0.01193576388888889,0,0,0.01193576388888889,31.582031250000004,0)" xlink:href="#X"/><use transform="matrix(0.01193576388888889,0,0,0.01193576388888889,46.14366319444445,0)" xlink:href="#ak"/><use transform="matrix(0.01193576388888889,0,0,0.01193576388888889,56.48003472222223,0)" xlink:href="#aC"/><use transform="matrix(0.01193576388888889,0,0,0.01193576388888889,71.328125,0)" xlink:href="#aD"/><use transform="matrix(0.01193576388888889,0,0,0.01193576388888889,85.5078125,0)" xlink:href="#Q"/><use transform="matrix(0.01193576388888889,0,0,0.01193576388888889,92.13216145833333,0)" xlink:href="#Y"/><use transform="matrix(0.01193576388888889,0,0,0.01193576388888889,105.82248263888887,0)" xlink:href="#ad"/><use transform="matrix(0.01193576388888889,0,0,0.01193576388888889,114.53559027777779,0)" xlink:href="#X"/><use transform="matrix(0.01193576388888889,0,0,0.01193576388888889,129.09722222222223,0)" xlink:href="#R"/><use transform="matrix(0.01193576388888889,0,0,0.01193576388888889,144.31532118055557,0)" xlink:href="#am"/><use transform="matrix(0.01193576388888889,0,0,0.01193576388888889,158.69791666666669,0)" xlink:href="#X"/><use transform="matrix(0.01193576388888889,0,0,0.01193576388888889,173.25954861111114,0)" xlink:href="#aE"/><use transform="matrix(0.01193576388888889,0,0,0.01193576388888889,191.52126736111114,0)" xlink:href="#P"/><use transform="matrix(0.01193576388888889,0,0,0.01193576388888889,205.71289062500003,0)" xlink:href="#R"/><use transform="matrix(0.01193576388888889,0,0,0.01193576388888889,220.93098958333334,0)" xlink:href="#aF"/><use transform="matrix(0.01193576388888889,0,0,0.01193576388888889,236.3400607638889,0)" xlink:href="#ac"/><use transform="matrix(0.01193576388888889,0,0,0.01193576388888889,242.96440972222223,0)" xlink:href="#X"/><use transform="matrix(0.01193576388888889,0,0,0.01193576388888889,257.5260416666667,0)" xlink:href="#ak"/></g><path fill="#333" d="M135 0v-1490h581c339 0 533 210 533 503 0 295-197 500-540 500H440V0H135zm305-733h220c186 0 274-104 274-254s-88-251-275-251H440v505" id="aG"/><path fill="#333" d="M361 0L31-1118h315c68 295 127 523 188 845 63-317 128-551 199-845h276c71 296 131 525 196 846 57-321 119-552 186-846h319L1378 0h-305c-73-261-148-486-204-771C813-484 740-261 666 0H361" id="aH"/><path fill="#333" d="M571 0L49-1490h339c138 427 271 775 384 1244 111-471 237-815 371-1244h337L970 0H571" id="aI"/><g id="p"><use transform="matrix(0.01193576388888889,0,0,0.01193576388888889,0,0)" xlink:href="#aG"/><use transform="matrix(0.01193576388888889,0,0,0.01193576388888889,15.528428819444446,0)" xlink:href="#P"/><use transform="matrix(0.01193576388888889,0,0,0.01193576388888889,29.720052083333336,0)" xlink:href="#Y"/><use transform="matrix(0.01193576388888889,0,0,0.01193576388888889,43.41037326388889,0)" xlink:href="#Y"/><use transform="matrix(0.01193576388888889,0,0,0.01193576388888889,57.10069444444445,0)" xlink:href="#aH"/><use transform="matrix(0.01193576388888889,0,0,0.01193576388888889,77.54665798611111,0)" xlink:href="#aa"/><use transform="matrix(0.01193576388888889,0,0,0.01193576388888889,92.53797743055556,0)" xlink:href="#ak"/><use transform="matrix(0.01193576388888889,0,0,0.01193576388888889,101.89561631944446,0)" xlink:href="#aF"/><use transform="matrix(0.01193576388888889,0,0,0.01193576388888889,117.30468750000001,0)" xlink:href="#aI"/><use transform="matrix(0.01193576388888889,0,0,0.01193576388888889,134.0625,0)" xlink:href="#X"/><use transform="matrix(0.01193576388888889,0,0,0.01193576388888889,148.62413194444446,0)" xlink:href="#ak"/><use transform="matrix(0.01193576388888889,0,0,0.01193576388888889,158.75759548611114,0)" xlink:href="#Q"/><use transform="matrix(0.01193576388888889,0,0,0.01193576388888889,165.38194444444449,0)" xlink:href="#V"/><use transform="matrix(0.01193576388888889,0,0,0.01193576388888889,175.31250000000006,0)" xlink:href="#Q"/><use transform="matrix(0.01193576388888889,0,0,0.01193576388888889,181.9368489583334,0)" xlink:href="#am"/><use transform="matrix(0.01193576388888889,0,0,0.01193576388888889,196.55815972222229,0)" xlink:href="#P"/><use transform="matrix(0.01193576388888889,0,0,0.01193576388888889,210.74978298611117,0)" xlink:href="#ad"/><use transform="matrix(0.01193576388888889,0,0,0.01193576388888889,219.70160590277783,0)" xlink:href="#Q"/><use transform="matrix(0.01193576388888889,0,0,0.01193576388888889,226.32595486111117,0)" xlink:href="#aa"/><use transform="matrix(0.01193576388888889,0,0,0.01193576388888889,241.31727430555563,0)" xlink:href="#R"/><use transform="matrix(0.01193576388888889,0,0,0.01193576388888889,256.53537326388897,0)" xlink:href="#aE"/><use transform="matrix(0.01193576388888889,0,0,0.01193576388888889,274.79709201388897,0)" xlink:href="#P"/><use transform="matrix(0.01193576388888889,0,0,0.01193576388888889,288.9887152777779,0)" xlink:href="#R"/><use transform="matrix(0.01193576388888889,0,0,0.01193576388888889,304.2068142361112,0)" xlink:href="#aF"/><use transform="matrix(0.01193576388888889,0,0,0.01193576388888889,319.61588541666674,0)" xlink:href="#ac"/><use transform="matrix(0.01193576388888889,0,0,0.01193576388888889,326.24023437500006,0)" xlink:href="#X"/><use transform="matrix(0.01193576388888889,0,0,0.01193576388888889,340.8018663194445,0)" xlink:href="#ak"/></g><g id="q"><use transform="matrix(0.010416666666666668,0,0,0.010416666666666668,0,0)" xlink:href="#au"/><use transform="matrix(0.010416666666666668,0,0,0.010416666666666668,15.583333333333336,0)" xlink:href="#av"/><use transform="matrix(0.010416666666666668,0,0,0.010416666666666668,27.562500000000004,0)" xlink:href="#ay"/><use transform="matrix(0.010416666666666668,0,0,0.010416666666666668,40.833333333333336,0)" xlink:href="#av"/></g><path fill="#333" d="M645 0H180v-1490h484c435 0 692 280 692 742 0 466-257 748-711 748zM370-168h263c363 0 539-218 539-580 0-358-176-574-521-574H370v1154" id="aJ"/><path fill="#333" d="M598-1118v154H368v674c0 100 37 144 132 144 23 0 62-6 92-12L629-6c-37 13-88 20-134 20-193 0-307-107-307-290v-688H20v-154h168v-266h180v266h230" id="aK"/><g id="r"><use transform="matrix(0.010416666666666668,0,0,0.010416666666666668,0,0)" xlink:href="#aJ"/><use transform="matrix(0.010416666666666668,0,0,0.010416666666666668,15.395833333333336,0)" xlink:href="#av"/><use transform="matrix(0.010416666666666668,0,0,0.010416666666666668,27.375000000000004,0)" xlink:href="#aK"/><use transform="matrix(0.010416666666666668,0,0,0.010416666666666668,34.14583333333334,0)" xlink:href="#ao"/><use transform="matrix(0.010416666666666668,0,0,0.010416666666666668,46.937500000000014,0)" xlink:href="#as"/></g><path fill="#333" d="M567 20C257 20 68-148 68-448v-87h305v92c0 143 75 217 194 217s193-74 193-218v-1046h302v1041c0 301-188 469-495 469" id="aL"/><path fill="#333" d="M449 0L49-1490h333c89 395 194 758 253 1185 65-426 176-790 269-1185h317c93 394 201 758 268 1181 60-425 164-788 253-1181h334L1675 0h-348c-90-376-204-711-266-1118C1004-714 886-373 798 0H449" id="aM"/><path fill="#333" d="M75-1237v-253h1217v253H837V0H531v-1237H75" id="aN"/><g id="s"><use transform="matrix(0.01193576388888889,0,0,0.01193576388888889,0,0)" xlink:href="#aL"/><use transform="matrix(0.01193576388888889,0,0,0.01193576388888889,14.287109375000002,0)" xlink:href="#aM"/><use transform="matrix(0.01193576388888889,0,0,0.01193576388888889,39.65060763888889,0)" xlink:href="#aN"/><use transform="matrix(0.01193576388888889,0,0,0.01193576388888889,55.96679687500001,0)" xlink:href="#aI"/><use transform="matrix(0.01193576388888889,0,0,0.01193576388888889,72.77235243055556,0)" xlink:href="#P"/><use transform="matrix(0.01193576388888889,0,0,0.01193576388888889,86.96397569444444,0)" xlink:href="#ac"/><use transform="matrix(0.01193576388888889,0,0,0.01193576388888889,93.58832465277777,0)" xlink:href="#Q"/><use transform="matrix(0.01193576388888889,0,0,0.01193576388888889,100.2126736111111,0)" xlink:href="#aF"/><use transform="matrix(0.01193576388888889,0,0,0.01193576388888889,115.62174479166666,0)" xlink:href="#P"/><use transform="matrix(0.01193576388888889,0,0,0.01193576388888889,129.81336805555554,0)" xlink:href="#ad"/><use transform="matrix(0.01193576388888889,0,0,0.01193576388888889,138.7651909722222,0)" xlink:href="#Q"/><use transform="matrix(0.01193576388888889,0,0,0.01193576388888889,145.38953993055554,0)" xlink:href="#aa"/><use transform="matrix(0.01193576388888889,0,0,0.01193576388888889,160.380859375,0)" xlink:href="#R"/><use transform="matrix(0.01193576388888889,0,0,0.01193576388888889,175.59895833333334,0)" xlink:href="#aE"/><use transform="matrix(0.01193576388888889,0,0,0.01193576388888889,193.86067708333334,0)" xlink:href="#P"/><use transform="matrix(0.01193576388888889,0,0,0.01193576388888889,208.05230034722223,0)" xlink:href="#R"/><use transform="matrix(0.01193576388888889,0,0,0.01193576388888889,223.27039930555557,0)" xlink:href="#aF"/><use transform="matrix(0.01193576388888889,0,0,0.01193576388888889,238.67947048611114,0)" xlink:href="#ac"/><use transform="matrix(0.01193576388888889,0,0,0.01193576388888889,245.30381944444446,0)" xlink:href="#X"/><use transform="matrix(0.01193576388888889,0,0,0.01193576388888889,259.8654513888889,0)" xlink:href="#ak"/></g><path fill="#333" d="M659 0H135v-1490h529c448 0 721 280 721 744 0 466-273 746-726 746zM440-263h204c287 0 437-148 437-483 0-333-150-481-435-481H440v964" id="aO"/><g id="t"><use transform="matrix(0.01193576388888889,0,0,0.01193576388888889,0,0)" xlink:href="#aB"/><use transform="matrix(0.01193576388888889,0,0,0.01193576388888889,17.891710069444446,0)" xlink:href="#Y"/><use transform="matrix(0.01193576388888889,0,0,0.01193576388888889,31.582031250000004,0)" xlink:href="#X"/><use transform="matrix(0.01193576388888889,0,0,0.01193576388888889,46.14366319444445,0)" xlink:href="#ak"/><use transform="matrix(0.01193576388888889,0,0,0.01193576388888889,56.48003472222223,0)" xlink:href="#aO"/><use transform="matrix(0.01193576388888889,0,0,0.01193576388888889,74.1330295138889,0)" xlink:href="#P"/><use transform="matrix(0.01193576388888889,0,0,0.01193576388888889,88.32465277777779,0)" xlink:href="#ad"/><use transform="matrix(0.01193576388888889,0,0,0.01193576388888889,97.39583333333334,0)" xlink:href="#P"/><use transform="matrix(0.01193576388888889,0,0,0.01193576388888889,111.58745659722223,0)" xlink:href="#ab"/><use transform="matrix(0.01193576388888889,0,0,0.01193576388888889,127.23524305555557,0)" xlink:href="#P"/><use transform="matrix(0.01193576388888889,0,0,0.01193576388888889,141.42686631944446,0)" xlink:href="#Y"/><use transform="matrix(0.01193576388888889,0,0,0.01193576388888889,155.1171875,0)" xlink:href="#X"/></g><g id="u"><use transform="matrix(0.01193576388888889,0,0,0.01193576388888889,0,0)" xlink:href="#aB"/><use transform="matrix(0.01193576388888889,0,0,0.01193576388888889,17.891710069444446,0)" xlink:href="#Y"/><use transform="matrix(0.01193576388888889,0,0,0.01193576388888889,31.582031250000004,0)" xlink:href="#X"/><use transform="matrix(0.01193576388888889,0,0,0.01193576388888889,46.14366319444445,0)" xlink:href="#ak"/></g><g id="v"><use transform="matrix(0.01193576388888889,0,0,0.01193576388888889,0,0)" xlink:href="#aC"/><use transform="matrix(0.01193576388888889,0,0,0.01193576388888889,14.848090277777779,0)" xlink:href="#R"/><use transform="matrix(0.01193576388888889,0,0,0.01193576388888889,30.066189236111114,0)" xlink:href="#ad"/><use transform="matrix(0.01193576388888889,0,0,0.01193576388888889,39.018012152777786,0)" xlink:href="#Q"/><use transform="matrix(0.01193576388888889,0,0,0.01193576388888889,45.64236111111112,0)" xlink:href="#ad"/><use transform="matrix(0.01193576388888889,0,0,0.01193576388888889,55.131293402777786,0)" xlink:href="#ae"/></g><g id="w"><use transform="matrix(0.01193576388888889,0,0,0.01193576388888889,0,0)" xlink:href="#aB"/><use transform="matrix(0.01193576388888889,0,0,0.01193576388888889,17.891710069444446,0)" xlink:href="#Y"/><use transform="matrix(0.01193576388888889,0,0,0.01193576388888889,31.582031250000004,0)" xlink:href="#X"/><use transform="matrix(0.01193576388888889,0,0,0.01193576388888889,46.14366319444445,0)" xlink:href="#ak"/><use transform="matrix(0.01193576388888889,0,0,0.01193576388888889,56.48003472222223,0)" xlink:href="#W"/><use transform="matrix(0.01193576388888889,0,0,0.01193576388888889,72.23524305555557,0)" xlink:href="#aa"/><use transform="matrix(0.01193576388888889,0,0,0.01193576388888889,87.22656250000001,0)" xlink:href="#ac"/><use transform="matrix(0.01193576388888889,0,0,0.01193576388888889,93.85091145833334,0)" xlink:href="#X"/></g><path fill="#333" d="M128 0v-1118h278l12 217c60-163 185-234 319-234 143 0 236 81 288 251 63-172 205-251 359-251 205 0 357 138 357 381V0h-301v-697c0-126-76-187-177-187-114 0-184 79-184 196V0H789v-705c0-109-72-179-174-179-106 0-187 74-187 208V0H128" id="aP"/><g id="x"><use transform="matrix(0.01193576388888889,0,0,0.01193576388888889,0,0)" xlink:href="#aC"/><use transform="matrix(0.01193576388888889,0,0,0.01193576388888889,14.848090277777779,0)" xlink:href="#R"/><use transform="matrix(0.01193576388888889,0,0,0.01193576388888889,30.066189236111114,0)" xlink:href="#ag"/><use transform="matrix(0.01193576388888889,0,0,0.01193576388888889,45.28428819444445,0)" xlink:href="#aP"/></g><g id="y"><use transform="matrix(0.01193576388888889,0,0,0.01193576388888889,0,0)" xlink:href="#af"/><use transform="matrix(0.01193576388888889,0,0,0.01193576388888889,17.688802083333336,0)" xlink:href="#am"/><use transform="matrix(0.01193576388888889,0,0,0.01193576388888889,32.07139756944445,0)" xlink:href="#am"/><use transform="matrix(0.01193576388888889,0,0,0.01193576388888889,46.453993055555564,0)" xlink:href="#aa"/><use transform="matrix(0.01193576388888889,0,0,0.01193576388888889,61.445312500000014,0)" xlink:href="#ag"/><use transform="matrix(0.01193576388888889,0,0,0.01193576388888889,76.66341145833334,0)" xlink:href="#R"/><use transform="matrix(0.01193576388888889,0,0,0.01193576388888889,91.88151041666667,0)" xlink:href="#ad"/><use transform="matrix(0.01193576388888889,0,0,0.01193576388888889,100.83333333333334,0)" xlink:href="#aj"/><use transform="matrix(0.01193576388888889,0,0,0.01193576388888889,116.83919270833334,0)" xlink:href="#ad"/><use transform="matrix(0.01193576388888889,0,0,0.01193576388888889,125.9103732638889,0)" xlink:href="#P"/><use transform="matrix(0.01193576388888889,0,0,0.01193576388888889,140.1019965277778,0)" xlink:href="#ad"/><use transform="matrix(0.01193576388888889,0,0,0.01193576388888889,149.05381944444446,0)" xlink:href="#ag"/><use transform="matrix(0.01193576388888889,0,0,0.01193576388888889,164.2719184027778,0)" xlink:href="#Y"/><use transform="matrix(0.01193576388888889,0,0,0.01193576388888889,177.96223958333337,0)" xlink:href="#aE"/><use transform="matrix(0.01193576388888889,0,0,0.01193576388888889,196.2239583333334,0)" xlink:href="#P"/><use transform="matrix(0.01193576388888889,0,0,0.01193576388888889,210.41558159722223,0)" xlink:href="#R"/><use transform="matrix(0.01193576388888889,0,0,0.01193576388888889,225.63368055555563,0)" xlink:href="#aF"/><use transform="matrix(0.01193576388888889,0,0,0.01193576388888889,241.04275173611114,0)" xlink:href="#ac"/><use transform="matrix(0.01193576388888889,0,0,0.01193576388888889,247.66710069444446,0)" xlink:href="#X"/><use transform="matrix(0.01193576388888889,0,0,0.01193576388888889,262.2287326388889,0)" xlink:href="#ak"/></g><path fill="#333" d="M763 24c-353 0-583-224-583-531v-983h190v968c0 214 149 370 393 370 243 0 391-156 391-370v-968h190v983c0 307-230 531-581 531" id="aQ"/><g id="z"><use transform="matrix(0.010416666666666668,0,0,0.010416666666666668,0,0)" xlink:href="#aQ"/><use transform="matrix(0.010416666666666668,0,0,0.010416666666666668,15.875000000000002,0)" xlink:href="#aK"/><use transform="matrix(0.010416666666666668,0,0,0.010416666666666668,22.854166666666668,0)" xlink:href="#aA"/><use transform="matrix(0.010416666666666668,0,0,0.010416666666666668,28.020833333333343,0)" xlink:href="#ar"/><use transform="matrix(0.010416666666666668,0,0,0.010416666666666668,33.18750000000001,0)" xlink:href="#aA"/><use transform="matrix(0.010416666666666668,0,0,0.010416666666666668,38.35416666666667,0)" xlink:href="#ap"/><use transform="matrix(0.010416666666666668,0,0,0.010416666666666668,51.41666666666667,0)" xlink:href="#av"/><use transform="matrix(0.010416666666666668,0,0,0.010416666666666668,63.39583333333334,0)" xlink:href="#ap"/><use transform="matrix(0.010416666666666668,0,0,0.010416666666666668,76.45833333333334,0)" xlink:href="#aq"/><use transform="matrix(0.010416666666666668,0,0,0.010416666666666668,88.89583333333334,0)" xlink:href="#as"/></g><path fill="#333" d="M625 442c-280 0-454-114-503-274l258-72c28 63 97 128 243 128 153 0 246-69 246-216v-206h-23C805-108 717-16 536-16 284-16 81-191 81-561c0-378 208-571 456-571 188 0 280 113 321 202h13v-188h295V-9c0 303-226 451-541 451zm5-686c153 0 240-119 240-319 0-198-86-329-240-329-158 0-241 137-241 329 0 195 85 319 241 319" id="aR"/><g id="A"><use transform="matrix(0.01193576388888889,0,0,0.01193576388888889,0,0)" xlink:href="#aL"/><use transform="matrix(0.01193576388888889,0,0,0.01193576388888889,14.287109375000002,0)" xlink:href="#aM"/><use transform="matrix(0.01193576388888889,0,0,0.01193576388888889,39.65060763888889,0)" xlink:href="#aN"/><use transform="matrix(0.01193576388888889,0,0,0.01193576388888889,55.96679687500001,0)" xlink:href="#O"/><use transform="matrix(0.01193576388888889,0,0,0.01193576388888889,78.740234375,0)" xlink:href="#P"/><use transform="matrix(0.01193576388888889,0,0,0.01193576388888889,92.93185763888889,0)" xlink:href="#R"/><use transform="matrix(0.01193576388888889,0,0,0.01193576388888889,108.14995659722221,0)" xlink:href="#P"/><use transform="matrix(0.01193576388888889,0,0,0.01193576388888889,122.3415798611111,0)" xlink:href="#aR"/><use transform="matrix(0.01193576388888889,0,0,0.01193576388888889,137.78645833333331,0)" xlink:href="#X"/><use transform="matrix(0.01193576388888889,0,0,0.01193576388888889,152.34809027777777,0)" xlink:href="#ak"/></g><g id="B"><use transform="matrix(0.01193576388888889,0,0,0.01193576388888889,0,0)" xlink:href="#aj"/><use transform="matrix(0.01193576388888889,0,0,0.01193576388888889,16.005859375,0)" xlink:href="#Q"/><use transform="matrix(0.01193576388888889,0,0,0.01193576388888889,22.630208333333336,0)" xlink:href="#R"/><use transform="matrix(0.01193576388888889,0,0,0.01193576388888889,37.84830729166667,0)" xlink:href="#aR"/><use transform="matrix(0.01193576388888889,0,0,0.01193576388888889,53.29318576388889,0)" xlink:href="#ac"/><use transform="matrix(0.01193576388888889,0,0,0.01193576388888889,59.91753472222223,0)" xlink:href="#X"/><use transform="matrix(0.01193576388888889,0,0,0.01193576388888889,74.47916666666667,0)" xlink:href="#ad"/><use transform="matrix(0.01193576388888889,0,0,0.01193576388888889,83.19227430555557,0)" xlink:href="#aa"/><use transform="matrix(0.01193576388888889,0,0,0.01193576388888889,98.18359375000001,0)" xlink:href="#R"/></g></defs></g></svg>